<?xml version="1.0" encoding="UTF-8" standalone="no"?>
<svg
   version="1.1"
   id="Layer_1"
   x="0px"
   y="0px"
   viewBox="0 0 1647.099 1647.076"
   enable-background="new 0 0 1647.099 1647.076"
   xml:space="preserve"
   sodipodi:docname="arrows.svg"
   inkscape:version="1.1 (c4e8f9e, 2021-05-24)"
   xmlns:inkscape="http://www.inkscape.org/namespaces/inkscape"
   xmlns:sodipodi="http://sodipodi.sourceforge.net/DTD/sodipodi-0.dtd"
   xmlns="http://www.w3.org/2000/svg"
   xmlns:svg="http://www.w3.org/2000/svg"><defs
   id="defs85" /><sodipodi:namedview
   id="namedview83"
   pagecolor="#ffffff"
   bordercolor="#666666"
   borderopacity="1.0"
   inkscape:pageshadow="2"
   inkscape:pageopacity="0.0"
   inkscape:pagecheckerboard="0"
   showgrid="false"
   inkscape:zoom="0.14328222"
   inkscape:cx="2906.8506"
   inkscape:cy="823.5495"
   inkscape:window-width="1680"
   inkscape:window-height="950"
   inkscape:window-x="0"
   inkscape:window-y="22"
   inkscape:window-maximized="1"
   inkscape:current-layer="g80" />
<g
   id="g80">
	<g
   id="g66">
		<path
   d="M60.739,1198.561c14.993-7.176,29.837-14.694,44.774-21.982c131.6,267.147,405.327,446.681,718.036,446.96    c-93.319-32.221-182.56-86.417-193.342-99.755c77.576-7.691,133.042-22.619,193.196-46.878    c-257.077-0.396-479.621-148.346-586.296-365.14c14.901-7.492,30.026-14.536,44.79-22.259    c-75.682-62.385-142.578-152.5-185.033-265.968C49.223,952.334,42.824,1090.492,60.739,1198.561z"
   id="path64"
   style="fill:#ffffff" />
	</g>
	<g
   id="g70">
		<path
   d="M1198.572,1586.348c-7.176-14.993-14.694-29.837-21.982-44.774c267.147-131.6,446.681-405.327,446.96-718.036    c-33.232,96.247-87.422,183.373-99.755,193.342c-7.69-77.568-22.616-133.036-46.878-193.196    c-0.396,257.075-148.344,479.62-365.14,586.296c-7.492-14.901-14.536-30.026-22.259-44.79    c-62.385,75.682-152.506,142.58-265.968,185.033C952.345,1597.864,1090.503,1604.264,1198.572,1586.348z"
   id="path68"
   style="fill:#ffffff" />
	</g>
	<g
   id="g74">
		<path
   d="M1586.359,448.516c-14.992,7.176-29.837,14.694-44.774,21.982c-131.6-267.147-405.327-446.68-718.036-446.96    c89.301,30.833,181.477,85.078,193.341,99.755c-77.422,7.676-132.889,22.557-193.196,46.878    c257.075,0.396,479.62,148.344,586.296,365.14c-14.901,7.492-30.026,14.536-44.79,22.259    c75.68,62.382,142.58,152.504,185.033,265.968C1597.875,694.743,1604.275,556.584,1586.359,448.516z"
   id="path72"
   style="fill:#ffffff" />
	</g>
	<g
   id="g78">
		<path
   d="M448.527,60.728c7.176,14.993,14.694,29.837,21.982,44.774c-267.147,131.6-446.68,405.327-446.96,718.036    c32.135-93.07,86.33-182.49,99.755-193.342c7.676,77.425,22.558,132.89,46.878,193.196    c0.396-257.074,148.343-479.62,365.14-586.296c7.492,14.901,14.536,30.026,22.259,44.79    c62.385-75.682,152.5-142.578,265.968-185.033C694.754,49.212,556.596,42.813,448.527,60.728z"
   id="path76"
   style="fill:#ffffff" />
	</g>
</g>
</svg>
